<svg width="117" height="42" viewBox="0 0 117 42" fill="none" xmlns="http://www.w3.org/2000/svg">
<g clip-path="url(#clip0_32_56)">
<path d="M60.9421 26.8234C60.1034 26.8234 59.302 26.8234 58.4556 26.8234C58.4556 26.6842 58.4556 26.5564 58.4556 26.4247C58.4556 23.6256 58.4518 20.823 58.4593 18.024C58.4593 17.4711 58.2825 17.0235 57.7859 16.7526C56.932 16.2861 55.9275 16.9068 55.9275 17.8925C55.9275 20.7252 55.9275 23.5618 55.9275 26.3946C55.9275 26.5299 55.9275 26.6616 55.9275 26.8196C55.0961 26.8196 54.291 26.8196 53.4635 26.8196C53.4484 26.7595 53.422 26.6954 53.422 26.6353C53.4257 23.6444 53.3994 20.65 53.4484 17.6591C53.471 16.177 54.2459 15.086 55.5851 14.4615C56.9169 13.8408 58.2149 13.9837 59.4262 14.8339C59.5164 14.8979 59.6068 14.9694 59.7158 15.0521C60.2499 14.6045 60.8482 14.2922 61.5404 14.1568C63.8353 13.7129 65.9758 15.4697 65.9758 17.8096C65.9758 20.6537 65.9758 23.5016 65.9758 26.3456C65.9758 26.4923 65.9758 26.6353 65.9758 26.8121C65.1443 26.8121 64.3431 26.8121 63.4929 26.8121C63.4929 26.6691 63.4929 26.5374 63.4929 26.4059C63.4929 23.5843 63.4967 20.7591 63.4929 17.9376C63.4929 17.125 62.9511 16.5945 62.1574 16.6096C61.5216 16.6208 60.9987 17.1513 60.9536 17.8435C60.9385 18.0918 60.9498 18.3401 60.9461 18.5884C60.9461 21.1842 60.9461 23.7837 60.9461 26.3794C60.9423 26.5149 60.9421 26.6503 60.9421 26.8234Z" fill="white"/>
<path d="M82.2691 14.3079C84.5188 14.3079 86.7684 14.2139 89.003 14.3342C90.9291 14.4396 92.3625 16.1739 92.3097 18.0887C92.2872 19.0066 91.9223 19.7929 91.2075 20.3947C91.1512 20.4438 91.0946 20.5001 91.027 20.564C91.9148 21.2224 92.3174 22.1064 92.3097 23.1712C92.3022 25.1537 90.6095 26.8353 88.6269 26.8428C86.5164 26.8503 84.4059 26.8428 82.2654 26.8428C82.2691 22.6483 82.2691 18.4724 82.2691 14.3079ZM86.7797 19.3264C87.3101 19.3264 87.8405 19.3264 88.3709 19.3264C88.3822 19.3264 88.3935 19.3264 88.4049 19.3264C89.2324 19.3189 89.8119 18.796 89.8194 18.0512C89.8269 17.3362 89.2476 16.7758 88.4463 16.7682C87.3176 16.7532 86.1891 16.7682 85.0605 16.7607C84.8198 16.7607 84.7482 16.8511 84.752 17.0805C84.7632 17.7238 84.7632 18.3672 84.7482 19.0104C84.7407 19.27 84.8423 19.3414 85.0868 19.3339C85.651 19.3151 86.2154 19.3226 86.7797 19.3264ZM84.7783 24.345C86.11 24.345 87.408 24.3713 88.702 24.3337C89.3491 24.3147 89.8532 23.664 89.8194 23.0282C89.7856 22.3736 89.2439 21.8394 88.5893 21.8244C88.0927 21.8131 87.5961 21.8206 87.1032 21.8206C86.3395 21.8206 85.5721 21.8206 84.782 21.8206C84.7783 22.6671 84.7783 23.4835 84.7783 24.345Z" fill="white"/>
<path d="M74.1051 14.1196C70.5012 14.1159 67.627 16.9938 67.5744 20.5489C67.5218 24.0626 70.4485 27.1475 74.0751 27.1136C77.6715 27.1136 80.5909 24.2131 80.5985 20.6316C80.6022 17.0426 77.6942 14.1234 74.1051 14.1196ZM74.0938 24.6231C71.8893 24.6269 70.0761 22.8286 70.0686 20.6392C70.0273 18.4007 71.9006 16.6928 73.8982 16.6026C76.0915 16.5047 78.0854 18.2504 78.1004 20.6165C78.1155 22.7948 76.2796 24.6194 74.0938 24.6231Z" fill="white"/>
<path d="M100.101 14.1196C96.4443 14.1159 93.54 16.9938 93.54 20.624C93.54 24.213 96.448 27.1136 100.044 27.1136C103.607 27.1174 106.5 24.2394 106.549 20.7257C106.605 17.0879 103.671 14.1234 100.101 14.1196ZM100.116 24.6231C97.9151 24.6306 96.0792 22.8626 96.0266 20.7633C95.9702 18.4234 97.8475 16.7003 99.8451 16.6063C102.287 16.4934 104.134 18.5437 104.051 20.6278C104.062 22.7835 102.26 24.6156 100.116 24.6231Z" fill="white"/>
<path d="M116.906 14.2811C116.906 15.105 116.906 15.9025 116.906 16.749C115.661 16.749 114.427 16.749 113.155 16.749C113.155 20.131 113.155 23.4641 113.155 26.8198C112.309 26.8198 111.504 26.8198 110.653 26.8198C110.646 26.6731 110.631 26.5188 110.631 26.3683C110.631 23.3213 110.631 20.274 110.631 17.223C110.631 16.7603 110.627 16.7603 110.168 16.7603C109.197 16.7603 108.227 16.7603 107.253 16.7603C107.132 16.7603 107.012 16.749 106.872 16.7452C106.872 15.9138 106.872 15.105 106.872 14.2811C110.213 14.2811 113.539 14.2811 116.906 14.2811Z" fill="white"/>
<path d="M29.7049 20.3239C30.2213 18.9426 30.7285 17.5799 31.2451 16.2011C32.0047 16.3109 32.6801 16.1403 33.2481 15.6121C33.6617 15.2288 33.8955 14.7543 33.9656 14.2004C34.0965 13.1767 33.4607 12.16 32.4721 11.8001C31.4531 11.4285 30.3476 11.8024 29.754 12.7326C29.2234 13.5647 29.2304 14.7987 30.212 15.7009C29.754 16.4745 29.2912 17.2505 28.8307 18.0241C28.541 18.5125 28.2465 18.9963 27.9637 19.4895C27.8888 19.6204 27.8164 19.6531 27.6645 19.6134C26.7156 19.3586 25.748 19.2021 24.7687 19.1295C24.7127 19.1249 24.6589 19.1109 24.5934 19.1016C24.5489 18.5265 24.5022 17.9563 24.4578 17.3837C24.362 16.1403 24.2638 14.8969 24.168 13.6535C24.154 13.4782 24.0909 13.2725 24.161 13.137C24.2218 13.0224 24.4414 12.9944 24.5911 12.929C25.5679 12.5012 26.2154 11.4051 26.0845 10.4001C25.9327 9.21513 25.1192 8.33869 23.9974 8.14937C22.4572 7.8876 21.0643 9.04451 21.0384 10.6058C21.0198 11.6645 21.7233 12.6485 22.7564 13.0108C22.8217 13.0341 22.8872 13.0552 22.9691 13.0809C22.9526 13.3216 22.9363 13.5577 22.9176 13.7937C22.7961 15.3573 22.6745 16.9232 22.5506 18.4868C22.5506 18.5009 22.5483 18.5149 22.5483 18.5288C22.532 18.7089 22.5787 18.9449 22.4805 19.0571C22.3893 19.1624 22.1486 19.139 21.9733 19.1692C21.0782 19.3212 20.183 19.4732 19.2529 19.6297C18.4932 18.3512 17.7033 17.0214 16.9134 15.6939C17.8973 14.78 17.9066 13.5039 17.2966 12.6391C16.6586 11.7323 15.497 11.4145 14.4756 11.8655C13.487 12.3026 12.9424 13.4104 13.2065 14.5019C13.3491 15.0909 13.695 15.5537 14.2092 15.8785C14.714 16.1987 15.2703 16.3016 15.8826 16.1917C16.3991 17.5731 16.9109 18.9473 17.4275 20.3309C17.0676 20.5062 16.7194 20.6651 16.3805 20.8427C14.8075 21.6677 13.4075 22.7171 12.2179 24.0424C10.7174 25.7158 9.55346 27.588 8.84294 29.7311C8.44562 30.9325 8.18853 32.1618 8.09037 33.4239C7.91742 35.67 8.20021 37.853 8.97851 39.9704C9.08134 40.2462 9.18652 40.5266 8.99253 40.8142C8.7588 41.1625 8.35447 41.2303 8.0296 40.9637C7.11342 40.2158 6.3211 39.344 5.5615 38.4419C3.26871 35.7237 1.71913 32.6223 0.833335 29.1866C0.468731 27.7725 0.26072 26.3329 0.181254 24.8745C0.083092 23.0701 0.164894 21.2751 0.473406 19.4918C1.27974 14.8642 3.30376 10.8442 6.51742 7.42016C8.4316 5.37978 10.6403 3.73438 13.1504 2.49567C14.9875 1.58649 16.9109 0.929734 18.9163 0.518386C20.8211 0.130409 22.7516 -0.00047487 24.6916 0.0976879C29.7329 0.352443 34.239 2.05393 38.1819 5.20214C41.4798 7.83618 43.8871 11.1387 45.4226 15.0699C46.0887 16.7784 46.5234 18.5499 46.7572 20.3706C46.9278 21.7074 47.0072 23.0515 46.9535 24.3976C46.8296 27.5646 46.098 30.5842 44.7331 33.4473C43.7118 35.5951 42.431 37.5678 40.7856 39.2927C40.2573 39.8442 39.7058 40.3724 39.1566 40.9054C38.8994 41.1554 38.5933 41.1881 38.3128 41.0198C38.0394 40.8562 37.9412 40.5969 38.044 40.2322C38.2334 39.5591 38.4577 38.8953 38.6306 38.2175C38.9742 36.8714 39.0934 35.4994 39.0584 34.1134C39.0046 32.0333 38.5326 30.0514 37.6374 28.1746C36.6066 26.0173 35.2276 24.1195 33.3836 22.5769C32.3389 21.7029 31.1797 21.0133 29.9456 20.4432C29.8801 20.408 29.8054 20.3706 29.7049 20.3239ZM6.32578 12.8869C6.34447 13.1113 6.35382 13.3146 6.3772 13.5156C6.44497 14.1046 6.6156 14.6632 6.88671 15.1914C6.95916 15.3339 7.08069 15.4158 7.24663 15.39C7.41023 15.3667 7.52476 15.2592 7.53645 15.1026C7.54579 14.9927 7.49672 14.8712 7.44997 14.7683C7.21859 14.2518 7.069 13.7166 7.05265 13.1487C7.00589 11.3186 7.77251 9.93733 9.35714 9.01414C9.66565 8.83418 9.7568 8.67291 9.63526 8.46022C9.51373 8.24986 9.32441 8.22649 9.01356 8.40412C7.27936 9.40212 6.42393 10.9283 6.32578 12.8869ZM40.0563 15.7663C40.0563 15.9276 40.0751 16.0912 40.054 16.2501C39.839 17.7974 39.063 18.9637 37.6747 19.7046C37.4528 19.8237 37.3756 20.0224 37.4761 20.207C37.5719 20.3847 37.7753 20.4361 37.9879 20.3286C38.5115 20.0644 38.979 19.7209 39.3762 19.2885C40.449 18.1223 40.9002 16.748 40.7459 15.175C40.6874 14.586 40.5098 14.0251 40.2433 13.4946C40.1241 13.2585 39.8343 13.2118 39.6637 13.3941C39.5352 13.532 39.5539 13.6769 39.631 13.8405C39.9232 14.4458 40.0867 15.0862 40.0563 15.7663ZM7.89405 12.9383C7.89639 13.6067 8.04595 14.2588 8.275 14.7239C8.39421 14.9693 8.58352 15.0628 8.77751 14.9717C8.97383 14.8805 9.00187 14.6889 8.91773 14.4318C8.80088 14.0835 8.65831 13.726 8.6326 13.366C8.52975 11.9707 9.10939 10.9236 10.3318 10.2388C10.5444 10.1196 10.6169 9.93265 10.5187 9.75269C10.4159 9.56105 10.2172 9.50962 9.9952 9.62883C8.63027 10.3721 7.97351 11.55 7.89405 12.9383ZM38.5115 15.598C38.5138 16.797 37.9038 17.8113 36.8169 18.419C36.581 18.5522 36.5039 18.723 36.5996 18.9122C36.7071 19.1225 36.887 19.1669 37.1349 19.0431C38.9602 18.1339 39.7526 15.7523 38.8363 13.9293C38.7218 13.6979 38.5371 13.6161 38.3455 13.7073C38.1469 13.8007 38.0932 13.983 38.203 14.2191C38.4017 14.6562 38.5162 15.1142 38.5115 15.598ZM9.48801 13.2468C9.48567 13.6488 9.56981 14.0321 9.75914 14.3804C9.81756 14.4855 9.98351 14.586 10.1027 14.5907C10.2009 14.5954 10.3434 14.4739 10.3949 14.371C10.4369 14.2869 10.3995 14.142 10.3551 14.0391C9.9648 13.1113 10.2943 12.1086 11.1638 11.6061C11.4139 11.4612 11.491 11.2882 11.3882 11.0989C11.276 10.8932 11.0633 10.8535 10.8109 11.0031C9.96013 11.5079 9.53476 12.2675 9.48801 13.2468ZM37.6513 15.2685C37.5882 15.0465 37.4877 14.6936 37.3872 14.3383C37.3827 14.3173 37.3709 14.2986 37.3616 14.2799C37.2518 14.0835 37.0624 14.0134 36.887 14.1022C36.7071 14.1934 36.6441 14.3827 36.7352 14.586C36.9946 15.1657 36.9923 15.7383 36.7001 16.3039C36.5225 16.6498 36.2444 16.8975 35.9102 17.0962C35.8072 17.157 35.7067 17.3088 35.7022 17.4234C35.6999 17.5239 35.8097 17.6736 35.9077 17.7226C35.9989 17.767 36.1602 17.7412 36.2561 17.6874C37.1558 17.199 37.5766 16.4137 37.6513 15.2685Z" fill="white"/>
<path d="M32.4559 34.5668C32.4582 36.3571 31.0792 37.7875 29.3497 37.7875C27.4425 37.7875 26.0027 36.4133 26.0027 34.5949C26.0027 32.7953 27.4636 31.3298 29.2609 31.3251C31.0395 31.3251 32.4559 32.7626 32.4559 34.5668Z" fill="white"/>
<path d="M17.9417 37.6285C16.1023 37.6263 14.686 36.2239 14.6883 34.4102C14.6906 32.6433 16.1748 31.1872 17.9721 31.1919C19.7554 31.1942 21.1648 32.6292 21.153 34.4429C21.1437 36.3174 19.6315 37.673 17.9417 37.6285Z" fill="white"/>
</g>
<defs>
<clipPath id="clip0_32_56">
<rect width="117" height="41.1788" fill="white"/>
</clipPath>
</defs>
</svg>
