<svg width="351" height="58" viewBox="0 0 351 58" fill="none" xmlns="http://www.w3.org/2000/svg">
<path d="M40.8424 58H12.1615V52.2795H6.441V46.559H0.720501V12.1576H6.441V6.43713H12.1615V0.71663H40.8424V6.43713H46.5629V12.1576H52.2834V32.2186H12.1615V40.8385H17.882V46.559H35.0827V40.8385H52.2834V46.559H46.5629V52.2795H40.8424V58ZM12.1615 23.6378H40.8424V17.8781H35.0827V12.1576H17.882V17.8781H12.1615V23.6378ZM75.1654 58H63.7244V0.71663H75.1654V6.43713H80.8859V0.71663H98.0866V6.43713H109.567V0.71663H132.488V6.43713H138.208V12.1576H143.968V58H132.488V17.8781H126.767V12.1576H115.287V17.8781H109.567V58H98.0866V17.8781H92.3661V12.1576H80.8859V17.8781H75.1654V58ZM189.771 58H166.85V52.2795H161.13V46.559H155.409V35.0788H161.13V29.3583H172.571V23.6378H195.531V17.8781H189.771V12.1576H172.571V17.8781H155.409V12.1576H161.13V6.43713H166.85V0.71663H195.531V6.43713H201.251V12.1576H206.972V58H195.531V52.2795H189.771V58ZM169.71 46.559H189.771V40.8385H195.531V29.3583H189.771V35.0788H169.71V46.559ZM249.915 58H229.854V52.2795H224.133V46.559H218.413V0.71663H229.854V40.8385H235.574V46.559H249.915V40.8385H255.635V0.71663H267.116V58H255.635V52.2795H249.915V58ZM290.037 58H278.596V0.71663H290.037V6.43713H295.757V0.71663H315.818V6.43713H321.578V12.1576H327.298V58H315.818V17.8781H310.098V12.1576H295.757V17.8781H290.037V58ZM350.22 58H338.779V46.559H350.22V58Z" fill="#C8C29D"/>
</svg>
